# xmcd CD database file
#
# Track frame offsets:
#	150
#	13861
#	29472
#	44612
#	58070
#	71469
#	84772
#	98266
#	112792
#	126552
#
# Disc length: 1891 seconds
#
# Revision: 0
# Processed by: cddbd v1.5.1PL2 Copyright (c) Steve Scherf et al.
# Submitted via: CDex 1.51
#
DISCID=7a07610a
DTITLE=Bessie Smith - Original Artist 2
DYEAR=1900
DGENRE=Blues
TTITLE0=Nobody knows you when you're down and out
TTITLE1=Lonesome desert blues
TTITLE2=Back water blues
TTITLE3=Hot spring blues
TTITLE4=Lost your head blues
TTITLE5=One and two blues
TTITLE6=Hard driving Papa
TTITLE7=Young woman's blues
TTITLE8=Homeless Blues
TTITLE9=Poor man's blues
EXTD=
EXTT0=
EXTT1=
EXTT2=
EXTT3=
EXTT4=
EXTT5=
EXTT6=
EXTT7=
EXTT8=
EXTT9=
PLAYORDER=
